<mxfile host="app.diagrams.net" agent="Mozilla/5.0 (Macintosh; Intel Mac OS X 10_15_7) AppleWebKit/537.36 (KHTML, like Gecko) Chrome/133.0.0.0 Safari/537.36" version="26.0.14">
  <diagram name="第 1 页" id="NeJ6XsY5_A4ip7li1P60">
    <mxGraphModel dx="867" dy="573" grid="1" gridSize="10" guides="1" tooltips="1" connect="1" arrows="1" fold="1" page="1" pageScale="1" pageWidth="827" pageHeight="1169" math="0" shadow="0">
      <root>
        <mxCell id="0" />
        <mxCell id="1" parent="0" />
        <mxCell id="UCOcALUk2iL8AtdviBTW-11" style="rounded=0;orthogonalLoop=1;jettySize=auto;html=1;exitX=0.07;exitY=0.4;exitDx=0;exitDy=0;exitPerimeter=0;entryX=0.5;entryY=0;entryDx=0;entryDy=0;fontFamily=Times New Roman;edgeStyle=orthogonalEdgeStyle;curved=1;" edge="1" parent="1" source="UCOcALUk2iL8AtdviBTW-6" target="UCOcALUk2iL8AtdviBTW-2">
          <mxGeometry relative="1" as="geometry">
            <Array as="points">
              <mxPoint x="140" y="232" />
            </Array>
          </mxGeometry>
        </mxCell>
        <mxCell id="UCOcALUk2iL8AtdviBTW-12" value="&amp;nbsp;notify" style="edgeLabel;html=1;align=center;verticalAlign=middle;resizable=0;points=[];fontFamily=Times New Roman;" vertex="1" connectable="0" parent="UCOcALUk2iL8AtdviBTW-11">
          <mxGeometry x="-0.0171" y="2" relative="1" as="geometry">
            <mxPoint x="18" y="15" as="offset" />
          </mxGeometry>
        </mxCell>
        <mxCell id="UCOcALUk2iL8AtdviBTW-6" value="Registry" style="ellipse;shape=cloud;whiteSpace=wrap;html=1;fontFamily=Times New Roman;fillColor=#f5f5f5;strokeColor=#666666;fontColor=#333333;" vertex="1" parent="1">
          <mxGeometry x="210" y="200" width="170" height="80" as="geometry" />
        </mxCell>
        <mxCell id="UCOcALUk2iL8AtdviBTW-9" style="rounded=0;orthogonalLoop=1;jettySize=auto;html=1;fontFamily=Times New Roman;entryX=0.31;entryY=0.8;entryDx=0;entryDy=0;entryPerimeter=0;exitX=0.75;exitY=0;exitDx=0;exitDy=0;edgeStyle=orthogonalEdgeStyle;curved=1;" edge="1" parent="1" source="UCOcALUk2iL8AtdviBTW-2" target="UCOcALUk2iL8AtdviBTW-6">
          <mxGeometry relative="1" as="geometry">
            <mxPoint x="240" y="280" as="targetPoint" />
            <Array as="points">
              <mxPoint x="263" y="310" />
            </Array>
          </mxGeometry>
        </mxCell>
        <mxCell id="UCOcALUk2iL8AtdviBTW-10" value="subscribe" style="edgeLabel;html=1;align=center;verticalAlign=middle;resizable=0;points=[];fontFamily=Times New Roman;" vertex="1" connectable="0" parent="UCOcALUk2iL8AtdviBTW-9">
          <mxGeometry x="-0.2251" y="1" relative="1" as="geometry">
            <mxPoint x="23" y="-19" as="offset" />
          </mxGeometry>
        </mxCell>
        <mxCell id="UCOcALUk2iL8AtdviBTW-13" style="edgeStyle=orthogonalEdgeStyle;rounded=0;orthogonalLoop=1;jettySize=auto;html=1;exitX=0.25;exitY=0;exitDx=0;exitDy=0;entryX=0.875;entryY=0.5;entryDx=0;entryDy=0;entryPerimeter=0;fontFamily=Times New Roman;curved=1;" edge="1" parent="1" source="UCOcALUk2iL8AtdviBTW-3" target="UCOcALUk2iL8AtdviBTW-6">
          <mxGeometry relative="1" as="geometry">
            <Array as="points">
              <mxPoint x="425" y="240" />
            </Array>
          </mxGeometry>
        </mxCell>
        <mxCell id="UCOcALUk2iL8AtdviBTW-14" value="register" style="edgeLabel;html=1;align=center;verticalAlign=middle;resizable=0;points=[];fontFamily=Times New Roman;" vertex="1" connectable="0" parent="UCOcALUk2iL8AtdviBTW-13">
          <mxGeometry x="-0.0341" y="3" relative="1" as="geometry">
            <mxPoint y="20" as="offset" />
          </mxGeometry>
        </mxCell>
        <mxCell id="UCOcALUk2iL8AtdviBTW-32" value="" style="endArrow=classic;html=1;rounded=0;exitX=1.006;exitY=0.839;exitDx=0;exitDy=0;exitPerimeter=0;entryX=0;entryY=0.839;entryDx=0;entryDy=0;entryPerimeter=0;fontFamily=Times New Roman;" edge="1" parent="1" source="UCOcALUk2iL8AtdviBTW-2" target="UCOcALUk2iL8AtdviBTW-3">
          <mxGeometry width="50" height="50" relative="1" as="geometry">
            <mxPoint x="300" y="610" as="sourcePoint" />
            <mxPoint x="350" y="560" as="targetPoint" />
          </mxGeometry>
        </mxCell>
        <mxCell id="UCOcALUk2iL8AtdviBTW-33" value="" style="endArrow=classic;html=1;rounded=0;exitX=0;exitY=0.91;exitDx=0;exitDy=0;exitPerimeter=0;entryX=1.005;entryY=0.91;entryDx=0;entryDy=0;entryPerimeter=0;fontFamily=Times New Roman;" edge="1" parent="1" source="UCOcALUk2iL8AtdviBTW-3" target="UCOcALUk2iL8AtdviBTW-2">
          <mxGeometry width="50" height="50" relative="1" as="geometry">
            <mxPoint x="450" y="550" as="sourcePoint" />
            <mxPoint x="211" y="550" as="targetPoint" />
          </mxGeometry>
        </mxCell>
        <mxCell id="UCOcALUk2iL8AtdviBTW-39" value="" style="group;fontStyle=1;fontFamily=Times New Roman;" vertex="1" connectable="0" parent="1">
          <mxGeometry x="70" y="310" width="140" height="275" as="geometry" />
        </mxCell>
        <mxCell id="UCOcALUk2iL8AtdviBTW-2" value="" style="rounded=1;whiteSpace=wrap;html=1;fontFamily=Times New Roman;fillColor=#fff2cc;strokeColor=#d6b656;" vertex="1" parent="UCOcALUk2iL8AtdviBTW-39">
          <mxGeometry width="140" height="275" as="geometry" />
        </mxCell>
        <mxCell id="UCOcALUk2iL8AtdviBTW-37" style="edgeStyle=orthogonalEdgeStyle;rounded=0;orthogonalLoop=1;jettySize=auto;html=1;entryX=0.5;entryY=0;entryDx=0;entryDy=0;fontFamily=Times New Roman;" edge="1" parent="UCOcALUk2iL8AtdviBTW-39" source="UCOcALUk2iL8AtdviBTW-4" target="UCOcALUk2iL8AtdviBTW-7">
          <mxGeometry relative="1" as="geometry" />
        </mxCell>
        <mxCell id="UCOcALUk2iL8AtdviBTW-4" value="Router" style="rounded=0;whiteSpace=wrap;html=1;fontFamily=Times New Roman;" vertex="1" parent="UCOcALUk2iL8AtdviBTW-39">
          <mxGeometry x="35" y="111" width="70" height="30" as="geometry" />
        </mxCell>
        <mxCell id="UCOcALUk2iL8AtdviBTW-38" style="edgeStyle=orthogonalEdgeStyle;rounded=0;orthogonalLoop=1;jettySize=auto;html=1;entryX=0.5;entryY=0;entryDx=0;entryDy=0;fontFamily=Times New Roman;" edge="1" parent="UCOcALUk2iL8AtdviBTW-39" source="UCOcALUk2iL8AtdviBTW-7" target="UCOcALUk2iL8AtdviBTW-8">
          <mxGeometry relative="1" as="geometry" />
        </mxCell>
        <mxCell id="UCOcALUk2iL8AtdviBTW-7" value="LoadBalance" style="rounded=0;whiteSpace=wrap;html=1;fontFamily=Times New Roman;" vertex="1" parent="UCOcALUk2iL8AtdviBTW-39">
          <mxGeometry x="22.5" y="166" width="95" height="30" as="geometry" />
        </mxCell>
        <mxCell id="UCOcALUk2iL8AtdviBTW-8" value="Invoker" style="rounded=0;whiteSpace=wrap;html=1;fontFamily=Times New Roman;" vertex="1" parent="UCOcALUk2iL8AtdviBTW-39">
          <mxGeometry x="25" y="226" width="90" height="25" as="geometry" />
        </mxCell>
        <mxCell id="UCOcALUk2iL8AtdviBTW-35" style="edgeStyle=orthogonalEdgeStyle;rounded=0;orthogonalLoop=1;jettySize=auto;html=1;entryX=0.5;entryY=0;entryDx=0;entryDy=0;fontFamily=Times New Roman;" edge="1" parent="UCOcALUk2iL8AtdviBTW-39" source="UCOcALUk2iL8AtdviBTW-19" target="UCOcALUk2iL8AtdviBTW-4">
          <mxGeometry relative="1" as="geometry" />
        </mxCell>
        <mxCell id="UCOcALUk2iL8AtdviBTW-19" value="Request" style="rounded=0;whiteSpace=wrap;html=1;fontFamily=Times New Roman;" vertex="1" parent="UCOcALUk2iL8AtdviBTW-39">
          <mxGeometry x="30" y="51" width="80" height="30" as="geometry" />
        </mxCell>
        <mxCell id="UCOcALUk2iL8AtdviBTW-42" value="&lt;b&gt;Consumer&lt;/b&gt;" style="text;html=1;align=center;verticalAlign=middle;whiteSpace=wrap;rounded=0;fontFamily=Times New Roman;" vertex="1" parent="UCOcALUk2iL8AtdviBTW-39">
          <mxGeometry x="10" y="10" width="60" height="30" as="geometry" />
        </mxCell>
        <mxCell id="UCOcALUk2iL8AtdviBTW-40" value="" style="group;fontFamily=Times New Roman;" vertex="1" connectable="0" parent="1">
          <mxGeometry x="390" y="310" width="140" height="275" as="geometry" />
        </mxCell>
        <mxCell id="UCOcALUk2iL8AtdviBTW-3" value="" style="rounded=1;whiteSpace=wrap;html=1;fontFamily=Times New Roman;fillColor=#dae8fc;strokeColor=#6c8ebf;" vertex="1" parent="UCOcALUk2iL8AtdviBTW-40">
          <mxGeometry width="140" height="275" as="geometry" />
        </mxCell>
        <mxCell id="UCOcALUk2iL8AtdviBTW-26" style="edgeStyle=orthogonalEdgeStyle;rounded=0;orthogonalLoop=1;jettySize=auto;html=1;entryX=0.75;entryY=1;entryDx=0;entryDy=0;fontFamily=Times New Roman;" edge="1" parent="UCOcALUk2iL8AtdviBTW-40" source="UCOcALUk2iL8AtdviBTW-5" target="UCOcALUk2iL8AtdviBTW-23">
          <mxGeometry relative="1" as="geometry">
            <Array as="points">
              <mxPoint x="92.62" y="208" />
            </Array>
          </mxGeometry>
        </mxCell>
        <mxCell id="UCOcALUk2iL8AtdviBTW-28" style="edgeStyle=orthogonalEdgeStyle;rounded=0;orthogonalLoop=1;jettySize=auto;html=1;exitX=0.25;exitY=1;exitDx=0;exitDy=0;fontFamily=Times New Roman;" edge="1" parent="UCOcALUk2iL8AtdviBTW-40" source="UCOcALUk2iL8AtdviBTW-23" target="UCOcALUk2iL8AtdviBTW-5">
          <mxGeometry relative="1" as="geometry">
            <Array as="points">
              <mxPoint x="47.620000000000005" y="207" />
              <mxPoint x="47.620000000000005" y="207" />
            </Array>
          </mxGeometry>
        </mxCell>
        <mxCell id="UCOcALUk2iL8AtdviBTW-5" value="Rpc Server" style="rounded=0;whiteSpace=wrap;html=1;fontFamily=Times New Roman;" vertex="1" parent="UCOcALUk2iL8AtdviBTW-40">
          <mxGeometry x="25.620000000000005" y="228" width="88.75" height="23" as="geometry" />
        </mxCell>
        <mxCell id="UCOcALUk2iL8AtdviBTW-20" value="Service Handler" style="rounded=0;whiteSpace=wrap;html=1;fontFamily=Times New Roman;" vertex="1" parent="UCOcALUk2iL8AtdviBTW-40">
          <mxGeometry x="20.620000000000005" y="91" width="98.75" height="30" as="geometry" />
        </mxCell>
        <mxCell id="UCOcALUk2iL8AtdviBTW-30" style="edgeStyle=orthogonalEdgeStyle;rounded=0;orthogonalLoop=1;jettySize=auto;html=1;entryX=0.75;entryY=1;entryDx=0;entryDy=0;fontFamily=Times New Roman;" edge="1" parent="UCOcALUk2iL8AtdviBTW-40" source="UCOcALUk2iL8AtdviBTW-23" target="UCOcALUk2iL8AtdviBTW-20">
          <mxGeometry relative="1" as="geometry">
            <Array as="points">
              <mxPoint x="94.62" y="151" />
              <mxPoint x="94.62" y="151" />
            </Array>
          </mxGeometry>
        </mxCell>
        <mxCell id="UCOcALUk2iL8AtdviBTW-31" style="edgeStyle=orthogonalEdgeStyle;rounded=0;orthogonalLoop=1;jettySize=auto;html=1;exitX=0.25;exitY=1;exitDx=0;exitDy=0;entryX=0.25;entryY=0;entryDx=0;entryDy=0;fontFamily=Times New Roman;" edge="1" parent="UCOcALUk2iL8AtdviBTW-40" source="UCOcALUk2iL8AtdviBTW-20" target="UCOcALUk2iL8AtdviBTW-23">
          <mxGeometry relative="1" as="geometry">
            <Array as="points">
              <mxPoint x="47.620000000000005" y="121" />
              <mxPoint x="47.620000000000005" y="141" />
            </Array>
          </mxGeometry>
        </mxCell>
        <mxCell id="UCOcALUk2iL8AtdviBTW-23" value="IO Thread" style="rounded=0;whiteSpace=wrap;html=1;fontFamily=Times New Roman;" vertex="1" parent="UCOcALUk2iL8AtdviBTW-40">
          <mxGeometry x="25.620000000000005" y="161" width="88.75" height="25" as="geometry" />
        </mxCell>
        <mxCell id="UCOcALUk2iL8AtdviBTW-53" value="Provider" style="text;html=1;align=center;verticalAlign=middle;whiteSpace=wrap;rounded=0;fontStyle=1;fontFamily=Times New Roman;" vertex="1" parent="UCOcALUk2iL8AtdviBTW-40">
          <mxGeometry x="10" y="10" width="60" height="30" as="geometry" />
        </mxCell>
        <mxCell id="UCOcALUk2iL8AtdviBTW-41" value="Protocol Buffer&lt;div&gt;HTTP/2&lt;/div&gt;" style="rounded=1;whiteSpace=wrap;html=1;fontFamily=Times New Roman;fillColor=#d5e8d4;strokeColor=#82b366;" vertex="1" parent="1">
          <mxGeometry x="260" y="530" width="90" height="39" as="geometry" />
        </mxCell>
      </root>
    </mxGraphModel>
  </diagram>
</mxfile>
